<svg width="14" height="18" viewBox="0 0 14 18" fill="none" xmlns="http://www.w3.org/2000/svg">
<path d="M9.4498 3.32502C9.76484 2.96192 10.0051 2.54016 10.1566 2.08397C10.3082 1.62777 10.3682 1.14613 10.3331 0.666687C9.36595 0.74476 8.46814 1.19965 7.83314 1.93335C7.52905 2.285 7.29862 2.69409 7.15548 3.13639C7.01234 3.57869 6.9594 4.04522 6.9998 4.50835C7.47159 4.51228 7.93796 4.4076 8.3628 4.2024C8.78765 3.99721 9.15958 3.697 9.4498 3.32502ZM11.5498 9.52502C11.5554 8.88647 11.7236 8.25987 12.0385 7.70436C12.3535 7.14884 12.8048 6.68274 13.3498 6.35002C13.0058 5.85439 12.5511 5.44572 12.0217 5.15642C11.4923 4.86712 10.9027 4.70515 10.2998 4.68335C8.9998 4.55002 7.7998 5.44169 7.10814 5.44169C6.41647 5.44169 5.44147 4.70002 4.35814 4.71669C3.64991 4.74002 2.95982 4.9465 2.35518 5.31601C1.75053 5.68551 1.25198 6.20542 0.908138 6.82502C-0.558529 9.37502 0.533138 13.1667 1.9998 15.225C2.66647 16.2334 3.4998 17.375 4.5998 17.3334C5.6998 17.2917 6.05814 16.65 7.33314 16.65C8.60814 16.65 8.9998 17.3334 10.0831 17.3084C11.1665 17.2834 11.9331 16.275 12.6331 15.2667C13.129 14.5346 13.5164 13.7347 13.7831 12.8917C13.1227 12.61 12.5592 12.1411 12.1623 11.5428C11.7654 10.9445 11.5525 10.243 11.5498 9.52502Z" fill="black"/>
</svg>
