<svg width="19" height="18" viewBox="0 0 19 18" fill="none" xmlns="http://www.w3.org/2000/svg">
<path d="M18.2734 9C18.2734 4.02944 14.244 0 9.27344 0C4.30288 0 0.273438 4.02944 0.273438 9C0.273438 13.4922 3.56461 17.2155 7.86719 17.8906V11.6016H5.58203V9H7.86719V7.01719C7.86719 4.76156 9.21083 3.51562 11.2666 3.51562C12.2513 3.51562 13.2812 3.69141 13.2812 3.69141V5.90625H12.1464C11.0284 5.90625 10.6797 6.6 10.6797 7.31175V9H13.1758L12.7768 11.6016H10.6797V17.8906C14.9823 17.2155 18.2734 13.4922 18.2734 9Z" fill="#3843FF"/>
<path d="M12.7768 11.6016L13.1758 9H10.6797V7.31175C10.6797 6.6 11.0284 5.90625 12.1464 5.90625H13.2812V3.69141C13.2812 3.69141 12.2513 3.51562 11.2666 3.51562C9.21083 3.51562 7.86719 4.76156 7.86719 7.01719V9H5.58203V11.6016H7.86719V17.8906C8.79902 18.0365 9.74786 18.0365 10.6797 17.8906V11.6016H12.7768Z" fill="white"/>
</svg>
